<svg xmlns="http://www.w3.org/2000/svg" viewBox="0 0 209 22.89"><defs><style>.cls-1{fill:#db4620;}.cls-2{fill:#626567;}</style></defs><g id="レイヤー_2" data-name="レイヤー 2"><g id="デザイン"><path class="cls-1" d="M6.75,16.14A13.29,13.29,0,0,0,0,12.52v2.34a11,11,0,0,1,5.14,2.9A11,11,0,0,1,8,22.89h2.34A13.29,13.29,0,0,0,6.75,16.14Z"/><path class="cls-1" d="M10.22,12.67A18.15,18.15,0,0,0,0,7.54V9.66a16.06,16.06,0,0,1,8.73,4.5,16,16,0,0,1,4.5,8.73h2.13A18.2,18.2,0,0,0,10.22,12.67Z"/><path class="cls-1" d="M3.15,19.74a8.18,8.18,0,0,0-3.15-2v2a3.07,3.07,0,0,0,3.07,3.07h2A8.13,8.13,0,0,0,3.15,19.74Z"/><path class="cls-1" d="M19.82,0H3.07A3.08,3.08,0,0,0,0,3.07V4.7a20.91,20.91,0,0,1,12.2,6,20.91,20.91,0,0,1,6,12.2h1.63a3.06,3.06,0,0,0,3.07-3.07V3.07A3.07,3.07,0,0,0,19.82,0Z"/><path class="cls-2" d="M37.41,8.18H33.17V4.09H46.49V8.18H42.24V18.56H37.41Z"/><path class="cls-2" d="M51.09,4.09h7c2.56,0,4.19.64,5.2,1.65a4.57,4.57,0,0,1,1.32,3.43v0a4.68,4.68,0,0,1-2.85,4.43l3.36,4.92h-5.5L57,14.42h-1v4.14H51.09ZM58,11c1.15,0,1.85-.52,1.85-1.41v0c0-.93-.72-1.38-1.83-1.38H55.91V11Z"/><path class="cls-2" d="M88.2,4.09H93V18.56H88.2Z"/><path class="cls-2" d="M99.26,4.09h4.52l5.14,6.38V4.09h4.78V18.56h-4.29l-5.36-6.68v6.68H99.26Z"/><path class="cls-2" d="M117.91,11.36v0a7.88,7.88,0,0,1,15.75,0v0a7.88,7.88,0,0,1-15.75,0Zm10.89,0v0a3.1,3.1,0,0,0-3-3.26,3.05,3.05,0,0,0-3,3.22v0a3.1,3.1,0,0,0,3,3.27A3.05,3.05,0,0,0,128.8,11.36Z"/><path class="cls-2" d="M73.58,4h4.78l6.08,14.58H79.21l-.77-1.95h-5l-.74,1.95H67.49Zm3.67,9.2L75.93,9.67l-1.32,3.51Z"/><path class="cls-2" d="M188.26,19l0-6.57-2.95,5.27h-2l-2.95-5V19h-4.16V4.56h3.76l4.41,7.68,4.3-7.68h3.76l0,14.42Z"/><path class="cls-2" d="M209,10c0,3.34-2.4,5.44-6.18,5.44h-2V19h-4.57V4.56h6.53C206.6,4.56,209,6.66,209,10Zm-4.61,0c0-1.05-.6-1.68-1.86-1.68h-1.67v3.37h1.67C203.79,11.68,204.39,11.05,204.39,10Z"/><path class="cls-2" d="M161.78,4.23h4.78l6.09,14.57h-5.24l-.76-1.94H161.6l-.75,1.94H155.7Zm3.67,9.2-1.32-3.51-1.32,3.51Z"/><path class="cls-2" d="M146.17,14.84a3.09,3.09,0,0,1-3-3.27v0a3,3,0,0,1,3-3.22,2.88,2.88,0,0,1,2.63,1.61h5.09a7.93,7.93,0,0,0-15.58,1.65v0a7.58,7.58,0,0,0,7.86,7.5,7.74,7.74,0,0,0,7.66-5.68h-5.13A2.85,2.85,0,0,1,146.17,14.84Z"/></g></g></svg>