<svg xmlns="http://www.w3.org/2000/svg" width="200" height="21.906"><defs><clipPath id="a"><path fill="none" d="M0 0h200v21.906H0z"/></clipPath></defs><g clip-path="url(#a)" fill="#fff"><path d="M6.458 15.448A12.671 12.671 0 0 0 0 11.982v2.238a10.506 10.506 0 0 1 4.915 2.77 10.506 10.506 0 0 1 2.771 4.915h2.238a12.671 12.671 0 0 0-3.466-6.458"/><path d="M9.779 12.127A17.358 17.358 0 0 0 0 7.214v2.034a15.366 15.366 0 0 1 8.356 4.3 15.366 15.366 0 0 1 4.3 8.356h2.034a17.357 17.357 0 0 0-4.915-9.779M3.016 18.89A7.825 7.825 0 0 0 0 17.017v1.947a2.942 2.942 0 0 0 2.942 2.942h1.947a7.825 7.825 0 0 0-1.873-3.016"/><path d="M18.964 0H2.942A2.942 2.942 0 0 0 0 2.942V4.5a20.043 20.043 0 0 1 11.679 5.73 20.043 20.043 0 0 1 5.73 11.678h1.556a2.942 2.942 0 0 0 2.942-2.942V2.942A2.942 2.942 0 0 0 18.964 0M35.802 7.827h-4.065V3.911h12.747v3.916h-4.065v9.93h-4.617ZM48.888 3.911h6.748c2.449 0 4.007.613 4.974 1.583a4.354 4.354 0 0 1 1.261 3.28v.041a4.474 4.474 0 0 1-2.723 4.233l3.216 4.707h-5.268l-2.6-3.956h-.987v3.956h-4.621Zm6.611 6.588c1.106 0 1.777-.5 1.777-1.347v-.038c0-.89-.692-1.325-1.757-1.325h-2.012v2.71ZM84.404 3.911h4.619v13.846h-4.619zM94.99 3.911h4.323l4.912 6.112V3.911h4.578v13.846h-4.105l-5.13-6.389v6.389h-4.579ZM112.829 10.873v-.038a7.546 7.546 0 0 1 15.077-.041v.041a7.546 7.546 0 0 1-15.077.038m10.42 0v-.038a2.959 2.959 0 0 0-2.9-3.125 2.918 2.918 0 0 0-2.861 3.084v.041a2.959 2.959 0 0 0 2.897 3.124 2.919 2.919 0 0 0 2.862-3.086M70.407 3.812h4.577l5.82 13.946h-5.009l-.734-1.86h-4.832l-.709 1.86h-4.933Zm3.511 8.8L72.656 9.25l-1.263 3.362ZM180.149 18.158l-.037-6.289-2.818 5.047h-1.928l-2.818-4.83v6.072h-3.985v-13.8h3.6l4.226 7.354 4.117-7.354h3.6l.038 13.8ZM200 9.565c0 3.194-2.3 5.2-5.913 5.2h-1.872v3.393h-4.374v-13.8h6.246c3.615 0 5.913 2.011 5.913 5.2m-4.411 0c0-1.006-.574-1.617-1.78-1.617h-1.594v3.233h1.594c1.205 0 1.78-.611 1.78-1.616M154.814 4.045h4.578l5.822 13.946h-5.011l-.731-1.86h-4.834l-.711 1.86h-4.934Zm3.514 8.8-1.264-3.362-1.263 3.362ZM139.875 14.197a2.959 2.959 0 0 1-2.9-3.124v-.045a2.916 2.916 0 0 1 2.86-3.084 2.772 2.772 0 0 1 2.517 1.542h4.874a7.587 7.587 0 0 0-14.91 1.587v.038a7.255 7.255 0 0 0 7.519 7.18 7.41 7.41 0 0 0 7.334-5.44h-4.907a2.726 2.726 0 0 1-2.387 1.345"/></g></svg>