<svg xmlns="http://www.w3.org/2000/svg" width="24.101" height="25.533" viewBox="0 0 24.101 25.533">
  <g id="グループ_25834" data-name="グループ 25834" transform="translate(-323.711 -602.377)">
    <path id="パス_20614" data-name="パス 20614" d="M347.513,607.15a1.33,1.33,0,0,0-1.029-.487H329.162l-.59-2.026h0a2.589,2.589,0,0,0-1.939-1.791l-2.117-.454a.664.664,0,1,0-.279,1.3l2.117.454a1.264,1.264,0,0,1,.946.873l3.869,13.294a2.746,2.746,0,0,0-.252.133,2.679,2.679,0,0,0-.976,1.005,2.766,2.766,0,0,0-.339,1.279h0v.069h0a2.749,2.749,0,0,0,2.75,2.682H344.8a.664.664,0,1,0,0-1.328H332.35a1.414,1.414,0,0,1-.554-.112,1.419,1.419,0,0,1-.868-1.276,1.4,1.4,0,0,1,.3-.864,1.385,1.385,0,0,1,.365-.315,1.7,1.7,0,0,1,.515-.2l12.511-2.037a1.994,1.994,0,0,0,1.633-1.57l1.53-7.523h0a1.307,1.307,0,0,0,.026-.264A1.329,1.329,0,0,0,347.513,607.15Z" fill="#f44317"/>
    <path id="パス_20615" data-name="パス 20615" d="M333.887,624.559a1.829,1.829,0,1,0,.664.806A1.826,1.826,0,0,0,333.887,624.559Z" fill="#f44317"/>
    <path id="パス_20616" data-name="パス 20616" d="M343.938,624.559a1.836,1.836,0,1,0,.663.806A1.826,1.826,0,0,0,343.938,624.559Z" fill="#f44317"/>
  </g>
</svg>
