<svg xmlns="http://www.w3.org/2000/svg" width="115.2" height="115.2" viewBox="0 0 115.2 115.2">
  <g id="グループ_1" data-name="グループ 1" transform="translate(-328.425 -6605.568)">
    <path id="パス_1" data-name="パス 1" d="M386.025,6605.568a57.6,57.6,0,1,0,57.6,57.6A57.6,57.6,0,0,0,386.025,6605.568Zm0,90.43c-15.58-.007-26.711-2.123-26.451-4.063,1.415-10.6,9.962-11.618,15.39-15.961,2.437-1.95,3.622-1.463,3.622-4.713v-5.2c-1.463-1.624-1.995-1.421-3.232-7.8-2.5,0-2.34-3.251-3.519-6.133-.92-2.246-.222-3.216.55-3.637-.417-2.22-.154-9.677,3.044-13.558l-.5-3.521a9.2,9.2,0,0,0,3.52-.252c2.516-.5,8.551-2.01,12.072,1.007,8.451,1.242,10.7,8.183,9.046,16.273.81.389,1.615,1.342.653,3.688-1.179,2.882-1.017,6.133-3.518,6.133-1.236,6.378-1.769,6.175-3.232,7.8v5.2c0,3.25,1.184,2.763,3.621,4.713,5.428,4.342,13.975,5.362,15.391,15.961C412.736,6693.875,401.606,6695.991,386.024,6696Z" fill="#0071bc"/>
  </g>
</svg>
