<svg xmlns="http://www.w3.org/2000/svg" width="24.055" height="24.054" viewBox="0 0 24.055 24.054">
  <path id="パス_20691" data-name="パス 20691" d="M52.972,1151.341A12.027,12.027,0,1,0,65,1163.368,12.027,12.027,0,0,0,52.972,1151.341Zm3.006,18.913-4.95,2.609.107-2.042a7.679,7.679,0,0,1-5.206-10.508l.081-.188,1.817.789-.081.188a5.7,5.7,0,0,0,3.5,7.693l.084-1.6,5.166,2.781Zm4.038-3.831-.082.187-1.817-.789.082-.187a5.7,5.7,0,0,0-3.5-7.694l-.084,1.6-5.171-2.781.523-.274.975-.516,3.971-2.092-.107,2.039a7.682,7.682,0,0,1,5.206,10.511Z" transform="translate(-40.945 -1151.341)"/>
</svg>
