<svg xmlns="http://www.w3.org/2000/svg" width="115.2" height="115.2" viewBox="0 0 115.2 115.2">
  <g id="グループ_3" data-name="グループ 3" transform="translate(-330.108 -7490.901)">
    <path id="パス_3" data-name="パス 3" d="M387.708,7490.9a57.6,57.6,0,1,0,57.6,57.6A57.6,57.6,0,0,0,387.708,7490.9Zm0,90.43c-15.58-.006-26.712-2.123-26.452-4.063,1.416-10.6,9.963-11.618,15.391-15.961,2.437-1.95,3.621-1.463,3.621-4.713v-5.2c-1.463-1.624-1.995-1.421-3.232-7.8-2.5,0-2.339-3.25-3.518-6.132-.921-2.247-.223-3.216.549-3.637-.416-2.221-.153-9.678,3.045-13.559l-.505-3.521a9.181,9.181,0,0,0,3.521-.252c2.516-.5,8.551-2.009,12.072,1.007,8.45,1.243,10.694,8.183,9.046,16.274.809.388,1.615,1.341.653,3.688-1.179,2.882-1.018,6.132-3.518,6.132-1.237,6.378-1.769,6.175-3.232,7.8v5.2c0,3.25,1.183,2.763,3.621,4.713,5.428,4.343,13.975,5.362,15.391,15.961C414.419,7579.208,403.288,7581.325,387.707,7581.331Z" fill="#8bc53f"/>
  </g>
</svg>
