<svg xmlns="http://www.w3.org/2000/svg" width="27.879" height="21.155" viewBox="0 0 27.879 21.155">
  <g id="グループ_41" data-name="グループ 41" transform="translate(-39.419 -3404.367)">
    <path id="パス_50" data-name="パス 50" d="M66.962,3410.623l-12.337-5.965a2.9,2.9,0,0,0-2.534,0l-12.337,5.965a.62.62,0,0,0,0,1.1l12.337,5.964a2.9,2.9,0,0,0,2.534,0l9.736-4.707v4.74a.821.821,0,0,0-.132,1.587l-.658,4.563H66.6l-.659-4.563a.821.821,0,0,0-.132-1.587v-5.442l1.15-.555a.619.619,0,0,0,0-1.1Z" fill="gray"/>
    <path id="パス_51" data-name="パス 51" d="M53.358,3420.139a4.026,4.026,0,0,1-1.763-.406l-6.035-2.918v5.812c0,1.276,3.672,2.9,7.8,2.9s7.8-1.619,7.8-2.9v-5.812l-6.035,2.918A4.022,4.022,0,0,1,53.358,3420.139Z" fill="gray"/>
  </g>
</svg>
