<svg xmlns="http://www.w3.org/2000/svg" width="115.2" height="115.2" viewBox="0 0 115.2 115.2">
  <g id="グループ_2" data-name="グループ 2" transform="translate(-330.108 -7120.235)">
    <path id="パス_2" data-name="パス 2" d="M387.708,7120.235a57.6,57.6,0,1,0,57.6,57.6A57.6,57.6,0,0,0,387.708,7120.235Zm0,90.43c-15.58-.007-26.712-2.124-26.452-4.063,1.416-10.6,9.963-11.619,15.391-15.962,2.437-1.95,3.621-1.462,3.621-4.712v-5.2c-1.463-1.625-1.995-1.422-3.232-7.8-2.5,0-2.339-3.25-3.518-6.132-.921-2.246-.223-3.216.549-3.637-.416-2.221-.153-9.677,3.045-13.558l-.505-3.521a9.2,9.2,0,0,0,3.521-.253c2.516-.5,8.551-2.009,12.072,1.008,8.45,1.242,10.694,8.182,9.046,16.273.809.388,1.615,1.341.653,3.688-1.179,2.882-1.018,6.132-3.518,6.132-1.237,6.378-1.769,6.175-3.232,7.8v5.2c0,3.25,1.183,2.762,3.621,4.712,5.428,4.343,13.975,5.362,15.391,15.962C414.419,7208.541,403.288,7210.658,387.707,7210.665Z" fill="#faaf3b"/>
  </g>
</svg>
