<svg xmlns="http://www.w3.org/2000/svg" width="34.953" height="28.543" viewBox="0 0 34.953 28.543">
  <path id="パス_17976" data-name="パス 17976" d="M402.383,4130.835a14.5,14.5,0,0,1-3.531,1c.569-.095,1.408-1.116,1.743-1.529a6.433,6.433,0,0,0,1.176-2.123c.03-.06.054-.136-.008-.182a.2.2,0,0,0-.187.015,18.114,18.114,0,0,1-4.193,1.592.281.281,0,0,1-.29-.077,3.4,3.4,0,0,0-.366-.371,7.429,7.429,0,0,0-2.032-1.234,7.114,7.114,0,0,0-3.116-.5,7.506,7.506,0,0,0-2.956.828,7.623,7.623,0,0,0-2.385,1.931,7.239,7.239,0,0,0-1.424,2.828,7.619,7.619,0,0,0-.076,2.986c.023.167.008.189-.144.167-5.761-.85-10.535-2.893-14.411-7.273-.169-.19-.26-.19-.4.015-1.7,2.52-.873,6.57,1.246,8.561.282.265.573.53.886.772a7.4,7.4,0,0,1-2.781-.772c-.169-.106-.253-.045-.268.144a4.339,4.339,0,0,0,.046.818,7.337,7.337,0,0,0,4.554,5.841,4.353,4.353,0,0,0,.924.28,8.311,8.311,0,0,1-2.727.084c-.2-.038-.275.06-.2.25,1.2,3.243,3.791,4.208,5.73,4.757.26.045.52.045.781.106-.016.023-.032.023-.046.046-.644.972-2.875,1.7-3.914,2.056a14.135,14.135,0,0,1-5.944.754c-.319-.046-.387-.043-.473,0s-.011.13.091.212c.406.265.818.5,1.238.728a19.71,19.71,0,0,0,3.973,1.575c7.141,1.955,15.184.519,20.545-4.763,4.21-4.147,5.686-9.866,5.686-15.592,0-.225.267-.349.426-.467a13.787,13.787,0,0,0,2.783-2.883.835.835,0,0,0,.172-.552v-.03C402.514,4130.743,402.525,4130.77,402.383,4130.835Z" transform="translate(-367.562 -4127.414)" fill="#fff"/>
</svg>
