<svg xmlns="http://www.w3.org/2000/svg" width="19.058" height="41.763" viewBox="0 0 19.058 41.763">
  <path id="パス_17973" data-name="パス 17973" d="M143.466,4141.85v20.191a.522.522,0,0,0,.517.526h7.365a.521.521,0,0,0,.517-.526v-20.52h5.34a.519.519,0,0,0,.514-.482l.514-6.182a.523.523,0,0,0-.515-.571h-5.853V4129.9a1.846,1.846,0,0,1,1.828-1.862h4.116a.521.521,0,0,0,.516-.526v-6.182a.521.521,0,0,0-.516-.526h-6.954a7.456,7.456,0,0,0-7.389,7.522v5.96h-3.682a.521.521,0,0,0-.517.526V4141a.521.521,0,0,0,.517.526h3.682Z" transform="translate(-139.267 -4120.804)" fill="#fff" fill-rule="evenodd"/>
</svg>
