<svg xmlns="http://www.w3.org/2000/svg" width="29.092" height="33.248" viewBox="0 0 29.092 33.248">
  <path id="copy-light" d="M28.179,4.282,24.81.913A3.117,3.117,0,0,0,22.606,0H11.429A3.117,3.117,0,0,0,8.312,3.117V6.234H3.117A3.117,3.117,0,0,0,0,9.351v20.78a3.117,3.117,0,0,0,3.117,3.117H17.663a3.117,3.117,0,0,0,3.117-3.117V27.014h5.195A3.117,3.117,0,0,0,29.092,23.9V6.486a3.117,3.117,0,0,0-.913-2.2ZM22.858,2.11a1.031,1.031,0,0,1,.483.272l3.369,3.369a1.032,1.032,0,0,1,.272.483H22.858ZM18.7,30.131a1.04,1.04,0,0,1-1.039,1.039H3.117a1.04,1.04,0,0,1-1.039-1.039V9.351A1.04,1.04,0,0,1,3.117,8.312H8.312V23.9a3.117,3.117,0,0,0,3.117,3.117H18.7ZM27.014,23.9a1.04,1.04,0,0,1-1.039,1.039H11.429A1.04,1.04,0,0,1,10.39,23.9V3.117a1.04,1.04,0,0,1,1.039-1.039H20.78V6.753a1.563,1.563,0,0,0,1.558,1.558h4.675Z" fill="#fff"/>
</svg>
