<svg xmlns="http://www.w3.org/2000/svg" width="17" height="17" viewBox="0 0 17 17">
  <g id="グループ_20126" data-name="グループ 20126" transform="translate(-683.979 -580.633)">
    <path id="パス_20604" data-name="パス 20604" d="M692.479,580.633a8.5,8.5,0,1,0,8.5,8.5A8.5,8.5,0,0,0,692.479,580.633ZM694.6,594l-3.5,1.844.075-1.443a5.428,5.428,0,0,1-3.679-7.426l.058-.133,1.284.558-.057.132a4.027,4.027,0,0,0,2.47,5.437l.06-1.128,3.651,1.966Zm2.854-2.708-.058.133-1.284-.558.058-.132A4.03,4.03,0,0,0,693.7,585.3l-.06,1.128-3.654-1.966.37-.193.689-.365,2.806-1.479-.075,1.442a5.428,5.428,0,0,1,3.679,7.427Z" fill="#fff"/>
  </g>
</svg>
