<svg xmlns="http://www.w3.org/2000/svg" width="26.23" height="27.79" viewBox="0 0 26.23 27.79">
  <g id="グループ_33" data-name="グループ 33" transform="translate(-251.77 -1370.834)">
    <path id="パス_37" data-name="パス 37" d="M277.674,1376.03a1.449,1.449,0,0,0-1.12-.531H257.7l-.642-2.2v0a2.821,2.821,0,0,0-2.11-1.949l-2.3-.494a.723.723,0,1,0-.3,1.413l2.3.494a1.375,1.375,0,0,1,1.029.951l4.211,14.467c-.1.044-.186.093-.275.145a2.915,2.915,0,0,0-1.062,1.094,3,3,0,0,0-.369,1.391h0v.076h0a2.993,2.993,0,0,0,2.993,2.919h13.546a.723.723,0,0,0,0-1.446H261.172a1.546,1.546,0,0,1-1.548-1.51,1.523,1.523,0,0,1,.331-.94,1.507,1.507,0,0,1,.4-.343,1.849,1.849,0,0,1,.561-.215l13.616-2.216a2.17,2.17,0,0,0,1.777-1.709l1.665-8.187h0a1.476,1.476,0,0,0,.029-.288A1.447,1.447,0,0,0,277.674,1376.03Z" fill="#fff"/>
    <path id="パス_38" data-name="パス 38" d="M262.844,1394.976a1.992,1.992,0,1,0,.88,1.653,1.991,1.991,0,0,0-.88-1.653Z" fill="#fff"/>
    <path id="パス_39" data-name="パス 39" d="M273.783,1394.976a1.992,1.992,0,1,0,.722.877A1.987,1.987,0,0,0,273.783,1394.976Z" fill="#fff"/>
  </g>
</svg>
