<svg xmlns="http://www.w3.org/2000/svg" width="40" height="40" viewBox="0 0 40 40">
  <path id="times-circle-light" d="M28,8A20,20,0,1,0,48,28,20,20,0,0,0,28,8Zm0,37.419A17.419,17.419,0,1,1,45.419,28,17.419,17.419,0,0,1,28,45.419Zm7.645-23.008L30.056,28l5.589,5.589a.969.969,0,0,1,0,1.371l-.685.685a.969.969,0,0,1-1.371,0L28,30.056l-5.589,5.589a.969.969,0,0,1-1.371,0l-.685-.685a.969.969,0,0,1,0-1.371L25.944,28l-5.589-5.589a.969.969,0,0,1,0-1.371l.685-.685a.969.969,0,0,1,1.371,0L28,25.944l5.589-5.589a.969.969,0,0,1,1.371,0l.685.685a.984.984,0,0,1,0,1.371Z" transform="translate(-8 -8)" fill="#fff"/>
</svg>
